<svg xmlns="http://www.w3.org/2000/svg" width="30.128" height="20.094" viewBox="0 0 30.128 20.094">
  <g id="Group_12414" data-name="Group 12414" transform="translate(632.128 -208) rotate(90)">
    <path id="Icon_ionic-ios-arrow-round-forward" data-name="Icon ionic-ios-arrow-round-forward" d="M19.214.385A1.367,1.367,0,0,0,19.2,2.31l6.363,6.373H1.35a1.36,1.36,0,0,0,0,2.721H25.555l-6.363,6.373A1.377,1.377,0,0,0,19.2,19.7a1.355,1.355,0,0,0,1.915-.01l8.623-8.686h0a1.528,1.528,0,0,0,.283-.429,1.3,1.3,0,0,0,.1-.523,1.364,1.364,0,0,0-.387-.952L21.118.416A1.333,1.333,0,0,0,19.214.385Z" transform="translate(228.094 602) rotate(90)"/>
  </g>
</svg>
