<svg xmlns="http://www.w3.org/2000/svg" width="80" height="80" viewBox="0 0 80 80">
  <g id="Group_13316" data-name="Group 13316" transform="translate(-372 -340)">
    <g id="Ellipse_259" data-name="Ellipse 259" transform="translate(372 340)" fill="#2ec4b6" stroke="#2ec4b6" stroke-width="1">
      <circle cx="40" cy="40" r="40" stroke="none"/>
      <circle cx="40" cy="40" r="39.5" fill="none"/>
    </g>
    <path id="electric-car_2_" data-name="electric-car (2)" d="M2.583,31.109H3.41a5.03,5.03,0,0,0,9.977,0h15.53a5.031,5.031,0,0,0,9.978,0h.481a2.476,2.476,0,0,0,2.447-2.125,23.277,23.277,0,0,0-.7-9.777C39.193,13,37.1,10.017,34.118,9.232c-2.413-.636-7.745-.516-7.954-.511-2.647,0-4.227,1.377-4.227,3.685v3a4.131,4.131,0,0,0-3.478,4.068v3a1.132,1.132,0,0,0,1.131,1.13h.779v1.752a.657.657,0,0,0,1.314,0V23.612h1.822v1.752a.657.657,0,0,0,1.314,0V23.612H25.6a1.132,1.132,0,0,0,1.131-1.13v-3a4.131,4.131,0,0,0-3.478-4.068v-3c0-1.96,1.585-2.371,2.929-2.371.056,0,5.372-.121,7.6.467,2.453.647,4.331,3.452,6.09,9.1A21.953,21.953,0,0,1,40.52,28.8a1.156,1.156,0,0,1-1.145.991H38.9a5.031,5.031,0,0,0-9.978,0H13.387a5.03,5.03,0,0,0-9.977,0H2.583a1.151,1.151,0,0,1-1.149-1.032,11.028,11.028,0,0,1,.35-5.155c.807-1.775,4.251-3.961,5.51-4.653a.59.59,0,0,0,.11-.076c.088-.072,8.49-7.217,12.353-8.194.413-.1.882-.2,1.395-.279a.657.657,0,1,0-.206-1.3c-.551.088-1.06.188-1.511.3C15.4,10.432,7.388,17.172,6.6,17.837c-.588.326-4.916,2.814-6.013,5.232-.723,1.59-.651,4.05-.464,5.834a2.462,2.462,0,0,0,2.457,2.207ZM25.415,19.477V22.3H19.773V19.477a2.821,2.821,0,0,1,5.642,0ZM33.9,26.73a3.722,3.722,0,1,1-3.722,3.722A3.722,3.722,0,0,1,33.9,26.73ZM8.4,26.73a3.725,3.725,0,0,1,3.719,3.688c0,.012-.007.022-.007.034s.006.022.007.033A3.721,3.721,0,1,1,8.4,26.73Z" transform="translate(390.499 357.791)" fill="#fff" stroke="#fff" stroke-width="0.5"/>
  </g>
</svg>
