<svg xmlns="http://www.w3.org/2000/svg" width="80" height="80" viewBox="0 0 80 80">
  <g id="Group_13314" data-name="Group 13314" transform="translate(-698 -340)">
    <g id="Path_27696" data-name="Path 27696" transform="translate(698 340)" fill="#2ec4b6">
      <path d="M 40 79.5 C 34.66731262207031 79.5 29.49441146850586 78.45570373535156 24.62496757507324 76.39610290527344 C 19.92140007019043 74.40665435791016 15.69705581665039 71.55848693847656 12.0692777633667 67.93072509765625 C 8.441511154174805 64.30294799804688 5.593344211578369 60.0786018371582 3.603899955749512 55.37503433227539 C 1.544299960136414 50.50558853149414 0.5 45.33268737792969 0.5 40 C 0.5 34.66731262207031 1.544299960136414 29.49441146850586 3.603899955749512 24.62496757507324 C 5.593344211578369 19.92140007019043 8.441511154174805 15.69705581665039 12.0692777633667 12.0692777633667 C 15.69705581665039 8.441511154174805 19.92140007019043 5.593344211578369 24.62496757507324 3.603899955749512 C 29.49441146850586 1.544299960136414 34.66731262207031 0.5 40 0.5 C 45.33268737792969 0.5 50.50558853149414 1.544299960136414 55.37503433227539 3.603899955749512 C 60.0786018371582 5.593344211578369 64.30294799804688 8.441511154174805 67.93072509765625 12.0692777633667 C 71.55848693847656 15.69705581665039 74.40665435791016 19.92140007019043 76.39610290527344 24.62496757507324 C 78.45570373535156 29.49441146850586 79.5 34.66731262207031 79.5 40 C 79.5 45.33268737792969 78.45570373535156 50.50558853149414 76.39610290527344 55.37503433227539 C 74.40665435791016 60.0786018371582 71.55848693847656 64.30294799804688 67.93072509765625 67.93072509765625 C 64.30294799804688 71.55848693847656 60.0786018371582 74.40665435791016 55.37503433227539 76.39610290527344 C 50.50558853149414 78.45570373535156 45.33268737792969 79.5 40 79.5 Z" stroke="none"/>
      <path d="M 40 1 C 34.73458862304688 1 29.62722396850586 2.031013488769531 24.81974411010742 4.064399719238281 C 20.17577743530273 6.028633117675781 16.00485610961914 8.8408203125 12.42283630371094 12.42283630371094 C 8.8408203125 16.00485610961914 6.028633117675781 20.17577743530273 4.064399719238281 24.81974411010742 C 2.031013488769531 29.62722396850586 1 34.73458862304688 1 40 C 1 45.26541137695312 2.031013488769531 50.37277984619141 4.064399719238281 55.18025588989258 C 6.028633117675781 59.82422256469727 8.8408203125 63.99514389038086 12.42283630371094 67.57716369628906 C 16.00485610961914 71.1591796875 20.17577743530273 73.97136688232422 24.81974411010742 75.93560028076172 C 29.62722396850586 77.96898651123047 34.73458862304688 79 40 79 C 45.26541137695312 79 50.37277984619141 77.96898651123047 55.18025588989258 75.93560028076172 C 59.82422256469727 73.97136688232422 63.99514389038086 71.1591796875 67.57716369628906 67.57716369628906 C 71.1591796875 63.99514389038086 73.97136688232422 59.82422256469727 75.93560028076172 55.18025588989258 C 77.96898651123047 50.37277984619141 79 45.26541137695312 79 40 C 79 34.73458862304688 77.96898651123047 29.62722396850586 75.93560028076172 24.81974411010742 C 73.97136688232422 20.17577743530273 71.1591796875 16.00485610961914 67.57716369628906 12.42283630371094 C 63.99514389038086 8.8408203125 59.82422256469727 6.028633117675781 55.18025588989258 4.064399719238281 C 50.37277984619141 2.031013488769531 45.26541137695312 1 40 1 M 40 0 C 62.09138870239258 0 80 17.90861129760742 80 40 C 80 62.09138870239258 62.09138870239258 80 40 80 C 17.90861129760742 80 0 62.09138870239258 0 40 C 0 17.90861129760742 17.90861129760742 0 40 0 Z" stroke="none" fill="#2ec4b6"/>
    </g>
    <g id="Group_13311" data-name="Group 13311" transform="translate(144 49)">
      <g id="energy-consumption" transform="translate(582 313)">
        <path id="Path_27679" data-name="Path 27679" d="M10.825,5.233A11.014,11.014,0,0,1,19.16,2.072,11.252,11.252,0,0,1,29.682,12.264a11.012,11.012,0,0,1-.021,2.04.529.529,0,0,0,.477.582h.056a.531.531,0,0,0,.526-.477,11.836,11.836,0,0,0,.021-2.229A12.328,12.328,0,0,0,19.209,1.014a12.068,12.068,0,0,0-9.127,3.463.531.531,0,0,0-.007.75.525.525,0,0,0,.75.007Z" transform="translate(-6.437 -0.998)" fill="#fff" stroke="#fff" stroke-width="0.5"/>
        <path id="Path_27680" data-name="Path 27680" d="M17.652,38.536h3.014a.52.52,0,0,0,.5-.358l1.016-2.9h.638a.924.924,0,0,0,.925-.925V31.7a.923.923,0,0,0-.925-.918h-.358a11.8,11.8,0,0,1,3.323-6.568,11.957,11.957,0,0,0,2.5-3.68.532.532,0,0,0-.974-.428,11.077,11.077,0,0,1-2.278,3.358,12.806,12.806,0,0,0-3.645,7.3H12.864a12.986,12.986,0,0,0-3.673-7.332A11.13,11.13,0,0,1,7.474,10.125a.529.529,0,0,0-.2-.722.544.544,0,0,0-.722.2,12.193,12.193,0,0,0,1.879,14.58,11.942,11.942,0,0,1,3.351,6.589h-.35a.923.923,0,0,0-.925.918v2.657a.924.924,0,0,0,.925.925h.631l1.016,2.9a.536.536,0,0,0,.5.357h3.014Zm-4.465-3.253h1.858c.007,0,.014-.007.021-.007h3.561a.533.533,0,1,0,0-1.065H11.56V31.828H22.671v2.383H18.318a.533.533,0,1,0,0,1.065h.189c.007,0,.014.007.021.007h2.517l-.764,2.187h-6.33Z" transform="translate(-4.95 -3.493)" fill="#fff" stroke="#fff" stroke-width="0.5"/>
        <path id="Path_27681" data-name="Path 27681" d="M16.841,25.394a.532.532,0,0,0,.652-.119l8.321-9.533a.527.527,0,0,0-.4-.876H21.888l1.689-3.421a.514.514,0,0,0-.028-.512.536.536,0,0,0-.449-.252H18.313a.525.525,0,0,0-.491.329L16.378,14.43a.531.531,0,1,0,.981.407l1.311-3.091h3.582l-1.689,3.421a.514.514,0,0,0,.028.512.536.536,0,0,0,.449.252H24.25l-6.014,6.884,1.058-3.785a.534.534,0,0,0-.512-.673H15.943l1.416-3.519a.528.528,0,1,0-.981-.393l-1.7,4.248a.547.547,0,0,0,.056.5.53.53,0,0,0,.442.231H18.1l-1.5,5.37A.5.5,0,0,0,16.841,25.394Z" transform="translate(-7.847 -3.893)" fill="#fff" stroke="#fff" stroke-width="0.5"/>
      </g>
      <path id="Path_27682" data-name="Path 27682" d="M10558.483,875.956a11.226,11.226,0,0,1-.955,3.633" transform="translate(-9952.726 -549.668)" fill="none" stroke="#fff" stroke-width="1.5"/>
      <path id="Path_27683" data-name="Path 27683" d="M10529.853,862.5a10.181,10.181,0,0,0-2.027,2.681" transform="translate(-9943.845 -545.644)" fill="none" stroke="#fff" stroke-linecap="round" stroke-width="1.5"/>
    </g>
  </g>
</svg>
