<svg xmlns="http://www.w3.org/2000/svg" width="48.512" height="31.084" viewBox="0 0 48.512 31.084">
  <path id="electric-car_6_" data-name="electric-car (6)" d="M2.948,34.278h.944a5.742,5.742,0,0,0,11.388,0H33.007a5.743,5.743,0,0,0,11.389,0h.549a2.826,2.826,0,0,0,2.793-2.426,26.57,26.57,0,0,0-.794-11.16c-2.207-7.085-4.6-10.49-8-11.386-2.754-.726-8.84-.589-9.079-.583-3.021,0-4.825,1.572-4.825,4.206v3.428A4.715,4.715,0,0,0,21.07,21v3.43a1.292,1.292,0,0,0,1.291,1.29h.889v2a.75.75,0,0,0,1.5,0v-2h2.08v2a.75.75,0,1,0,1.5,0v-2h.889a1.292,1.292,0,0,0,1.291-1.29V21a4.715,4.715,0,0,0-3.97-4.644V12.929c0-2.237,1.809-2.706,3.343-2.706.064,0,6.132-.138,8.679.533,2.8.738,4.944,3.94,6.951,10.382a25.058,25.058,0,0,1,.739,10.509,1.32,1.32,0,0,1-1.307,1.131H44.4a5.743,5.743,0,0,0-11.389,0H15.28a5.742,5.742,0,0,0-11.388,0H2.948A1.314,1.314,0,0,1,1.636,31.6a12.588,12.588,0,0,1,.4-5.884c.921-2.026,4.852-4.521,6.289-5.311a.674.674,0,0,0,.126-.087c.1-.082,9.691-8.238,14.1-9.353.471-.119,1.007-.227,1.592-.319a.75.75,0,1,0-.235-1.481c-.629.1-1.21.215-1.725.346-4.6,1.165-13.75,8.858-14.646,9.617C6.866,19.5,1.926,22.34.674,25.1c-.825,1.815-.743,4.623-.53,6.659a2.81,2.81,0,0,0,2.8,2.519ZM29.01,21v3.22H22.57V21a3.22,3.22,0,1,1,6.44,0Zm9.69,8.279a4.249,4.249,0,1,1-4.249,4.249A4.249,4.249,0,0,1,38.7,29.279Zm-29.115,0a4.252,4.252,0,0,1,4.245,4.21c0,.014-.008.025-.008.039s.007.025.008.038a4.247,4.247,0,1,1-4.245-4.287Z" transform="translate(0.255 -8.445)" fill="#ff9f1c" stroke="#ff9f1c" stroke-width="0.5"/>
</svg>
