<svg xmlns="http://www.w3.org/2000/svg" width="35.604" height="35.63" viewBox="0 0 35.604 35.63">
  <g id="home_6_" data-name="home (6)" transform="translate(0.25 0.276)">
    <g id="Group_13308" data-name="Group 13308" transform="translate(0 0.001)">
      <g id="Group_13307" data-name="Group 13307" transform="translate(0 0)">
        <path id="Path_27677" data-name="Path 27677" d="M34.418,33.733H31.4V21.506a.686.686,0,0,0-1.371,0V33.733H8.365V27.288a.686.686,0,1,0-1.371,0v6.445H5.074V15.7L17.552,5.96,30.03,15.7v6.513a.686.686,0,1,0,1.371,0V16.772l.12.094a.685.685,0,0,0,.907-.056L34.9,14.337a.686.686,0,0,0-.063-1.025l-4.122-3.218V3.223a.686.686,0,0,0-.686-.686H26.056a.686.686,0,0,0-.686.686v2.7L17.974.146a.686.686,0,0,0-.844,0L.266,13.312A.686.686,0,0,0,.2,14.337L2.676,16.81a.686.686,0,0,0,.907.056l.12-.094V33.733H.686a.686.686,0,1,0,0,1.371H34.418a.686.686,0,1,0,0-1.371ZM26.742,3.909h2.6V9.023l-2.6-2.032ZM3.217,15.412l-1.5-1.5L17.552,1.556,33.383,13.915l-1.5,1.5L17.974,4.549a.685.685,0,0,0-.844,0Z" transform="translate(0 -0.001)" fill="#ff9f1c" stroke="#ff9f1c" stroke-width="0.5"/>
      </g>
    </g>
    <g id="Group_13310" data-name="Group 13310" transform="translate(10.284 14.947)">
      <g id="Group_13309" data-name="Group 13309">
        <path id="Path_27678" data-name="Path 27678" d="M163.849,218H150.686a.686.686,0,0,0-.686.686v13.164a.686.686,0,0,0,.686.686h13.164a.686.686,0,0,0,.686-.686V218.686A.686.686,0,0,0,163.849,218Zm-7.268,13.164h-5.211v-5.211h5.211Zm0-6.582h-5.211v-5.211h5.211Zm6.582,6.582h-5.211v-5.211h5.211Zm0-6.582h-5.211v-5.211h5.211Z" transform="translate(-150 -218)" fill="#ff9f1c" stroke="#ff9f1c" stroke-width="0.5"/>
      </g>
    </g>
  </g>
</svg>
