<svg xmlns="http://www.w3.org/2000/svg" width="24.846" height="35.545" viewBox="0 0 24.846 35.545">
  <g id="Group_13311" data-name="Group 13311" transform="translate(-581.75 -312.748)">
    <g id="energy-consumption" transform="translate(582 313)">
      <path id="Path_27679" data-name="Path 27679" d="M10.825,5.233A11.014,11.014,0,0,1,19.16,2.072,11.252,11.252,0,0,1,29.682,12.264a11.012,11.012,0,0,1-.021,2.04.529.529,0,0,0,.477.582h.056a.531.531,0,0,0,.526-.477,11.836,11.836,0,0,0,.021-2.229A12.328,12.328,0,0,0,19.209,1.014a12.068,12.068,0,0,0-9.127,3.463.531.531,0,0,0-.007.75.525.525,0,0,0,.75.007Z" transform="translate(-6.437 -0.998)" fill="#ff9f1c" stroke="#ff9f1c" stroke-width="0.5"/>
      <path id="Path_27680" data-name="Path 27680" d="M17.652,38.536h3.014a.52.52,0,0,0,.5-.358l1.016-2.9h.638a.924.924,0,0,0,.925-.925V31.7a.923.923,0,0,0-.925-.918h-.358a11.8,11.8,0,0,1,3.323-6.568,11.957,11.957,0,0,0,2.5-3.68.532.532,0,0,0-.974-.428,11.077,11.077,0,0,1-2.278,3.358,12.806,12.806,0,0,0-3.645,7.3H12.864a12.986,12.986,0,0,0-3.673-7.332A11.13,11.13,0,0,1,7.474,10.125a.529.529,0,0,0-.2-.722.544.544,0,0,0-.722.2,12.193,12.193,0,0,0,1.879,14.58,11.942,11.942,0,0,1,3.351,6.589h-.35a.923.923,0,0,0-.925.918v2.657a.924.924,0,0,0,.925.925h.631l1.016,2.9a.536.536,0,0,0,.5.357h3.014Zm-4.465-3.253h1.858c.007,0,.014-.007.021-.007h3.561a.533.533,0,1,0,0-1.065H11.56V31.828H22.671v2.383H18.318a.533.533,0,1,0,0,1.065h.189c.007,0,.014.007.021.007h2.517l-.764,2.187h-6.33Z" transform="translate(-4.95 -3.493)" fill="#ff9f1c" stroke="#ff9f1c" stroke-width="0.5"/>
      <path id="Path_27681" data-name="Path 27681" d="M16.841,25.394a.532.532,0,0,0,.652-.119l8.321-9.533a.527.527,0,0,0-.4-.876H21.888l1.689-3.421a.514.514,0,0,0-.028-.512.536.536,0,0,0-.449-.252H18.313a.525.525,0,0,0-.491.329L16.378,14.43a.531.531,0,1,0,.981.407l1.311-3.091h3.582l-1.689,3.421a.514.514,0,0,0,.028.512.536.536,0,0,0,.449.252H24.25l-6.014,6.884,1.058-3.785a.534.534,0,0,0-.512-.673H15.943l1.416-3.519a.528.528,0,1,0-.981-.393l-1.7,4.248a.547.547,0,0,0,.056.5.53.53,0,0,0,.442.231H18.1l-1.5,5.37A.5.5,0,0,0,16.841,25.394Z" transform="translate(-7.847 -3.893)" fill="#ff9f1c" stroke="#ff9f1c" stroke-width="0.5"/>
    </g>
    <path id="Path_27682" data-name="Path 27682" d="M10558.483,875.956a11.226,11.226,0,0,1-.955,3.633" transform="translate(-9952.726 -549.668)" fill="none" stroke="#ff9f1c" stroke-width="1.5"/>
    <path id="Path_27683" data-name="Path 27683" d="M10529.853,862.5a10.181,10.181,0,0,0-2.027,2.681" transform="translate(-9943.845 -545.644)" fill="none" stroke="#ff9f1c" stroke-linecap="round" stroke-width="1.5"/>
  </g>
</svg>
