<svg xmlns="http://www.w3.org/2000/svg" width="80" height="80" viewBox="0 0 80 80">
  <g id="Group_13315" data-name="Group 13315" transform="translate(-834 -340)">
    <g id="Ellipse_262" data-name="Ellipse 262" transform="translate(834 340)" fill="#fff" stroke="#2ec4b6" stroke-width="1">
      <circle cx="40" cy="40" r="40" stroke="none"/>
      <circle cx="40" cy="40" r="39.5" fill="none"/>
    </g>
    <g id="offer" transform="translate(848.558 353.016)">
      <path id="Path_27684" data-name="Path 27684" d="M41.937,22.637a2.986,2.986,0,0,1-.817-2.516l.12-.847a4.7,4.7,0,0,0-3.86-5.315l-.843-.15a2.993,2.993,0,0,1-2.14-1.553l-.4-.753a4.7,4.7,0,0,0-6.248-2.028l-.77.372a2.991,2.991,0,0,1-2.645,0l-.766-.377A4.7,4.7,0,0,0,17.318,11.5l-.4.753a2.99,2.99,0,0,1-2.14,1.553l-.843.15a4.7,4.7,0,0,0-3.86,5.315l.12.847a2.986,2.986,0,0,1-.817,2.516l-.595.612a4.7,4.7,0,0,0,0,6.569l.595.616a2.986,2.986,0,0,1,.817,2.516l-.12.847a4.7,4.7,0,0,0,3.86,5.315l.843.15a2.993,2.993,0,0,1,2.14,1.553l.4.753a4.7,4.7,0,0,0,6.248,2.028l.766-.368a2.991,2.991,0,0,1,2.645,0l.766.377a4.7,4.7,0,0,0,6.248-2.028l.4-.753a2.99,2.99,0,0,1,2.14-1.553l.843-.15a4.7,4.7,0,0,0,3.86-5.315l-.12-.847a2.986,2.986,0,0,1,.817-2.516l.595-.612a4.7,4.7,0,0,0,0-6.569Zm-.638,6-.595.612A4.7,4.7,0,0,0,39.42,33.19l.12.847a3,3,0,0,1-2.461,3.389l-.843.15a4.68,4.68,0,0,0-3.355,2.439l-.4.753a3,3,0,0,1-3.984,1.3l-.766-.377a4.686,4.686,0,0,0-4.151,0l-.766.377a3,3,0,0,1-3.984-1.3l-.4-.753a4.7,4.7,0,0,0-3.355-2.439l-.843-.15a3,3,0,0,1-2.461-3.389l.12-.847A4.683,4.683,0,0,0,10.6,29.244l-.595-.616a3,3,0,0,1,0-4.189l.595-.612a4.7,4.7,0,0,0,1.284-3.945l-.12-.847a3,3,0,0,1,2.461-3.389l.843-.15a4.68,4.68,0,0,0,3.355-2.439l.4-.753a3,3,0,0,1,2.653-1.6,3.04,3.04,0,0,1,1.331.308l.766.377a4.686,4.686,0,0,0,4.151,0l.766-.377a3,3,0,0,1,3.984,1.3l.4.753A4.7,4.7,0,0,0,36.237,15.5l.843.15a3,3,0,0,1,2.461,3.389l-.12.847A4.683,4.683,0,0,0,40.7,23.827l.595.616a3,3,0,0,1,0,4.189Z" transform="translate(0)"/>
      <path id="Path_27685" data-name="Path 27685" d="M47.372,33.755a.857.857,0,0,0-1.211,0L33.755,46.161a.855.855,0,1,0,1.207,1.211L47.368,34.966A.854.854,0,0,0,47.372,33.755Z" transform="translate(-14.91 -14.028)"/>
      <path id="Path_27686" data-name="Path 27686" d="M37.007,34.989a3.638,3.638,0,1,0-2.572-1.066,3.622,3.622,0,0,0,2.572,1.066Zm-1.361-5a1.922,1.922,0,1,1-.565,1.361A1.918,1.918,0,0,1,35.647,29.991Z" transform="translate(-14.832 -10.717)"/>
      <path id="Path_27687" data-name="Path 27687" d="M50.7,56.356a3.637,3.637,0,1,0,6.209,2.572A3.637,3.637,0,0,0,50.7,56.356Zm3.933,3.933a1.922,1.922,0,1,1,.565-1.361A1.929,1.929,0,0,1,54.632,60.288Z" transform="translate(-24.139 -26.491)"/>
    </g>
  </g>
</svg>
