<svg xmlns="http://www.w3.org/2000/svg" width="149.045" height="21" viewBox="0 0 149.045 21">
  <g id="Group_13325" data-name="Group 13325" transform="translate(-887.955 -579)">
    <text id="Change_Address" data-name="Change Address" transform="translate(911 596)" fill="#ff9f1c" font-size="16" font-family="SegoeUI-Bold, Segoe UI" font-weight="700" letter-spacing="0.02em"><tspan x="0" y="0">Change Address</tspan></text>
    <g id="Layer_92" data-name="Layer 92" transform="translate(885.942 580.992)">
      <path id="Path_27693" data-name="Path 27693" d="M19.27,2.636a2.113,2.113,0,0,0-3.007,0L14.91,4.01,17.9,7l1.352-1.352a2.113,2.113,0,0,0,.021-3.007Z" transform="translate(-3.814)" fill="#ff9f1c"/>
      <path id="Path_27694" data-name="Path 27694" d="M10.1,6.27,4.187,12.179a.81.81,0,0,0-.134.183L2.1,16.313a.7.7,0,0,0,.923.965L6.969,15.32a.81.81,0,0,0,.183-.134l5.909-5.909Z" transform="translate(0 -1.26)" fill="#ff9f1c"/>
      <path id="Path_27695" data-name="Path 27695" d="M18.043,21.409H11.7A.7.7,0,1,1,11.7,20h6.339a.7.7,0,0,1,0,1.409Z" transform="translate(-2.658 -5.32)" fill="#ff9f1c"/>
    </g>
  </g>
</svg>
