<svg xmlns="http://www.w3.org/2000/svg" width="16.75" height="16.754" viewBox="0 0 16.75 16.754">
  <g id="Layer_92" data-name="Layer 92" transform="translate(-2.013 -2.008)">
    <path id="Path_27693" data-name="Path 27693" d="M20.1,2.755a2.514,2.514,0,0,0-3.578,0L14.91,4.39l3.553,3.553,1.609-1.609A2.514,2.514,0,0,0,20.1,2.755Z" transform="translate(-2.089)" fill="#ff9f1c"/>
    <path id="Path_27694" data-name="Path 27694" d="M11.631,6.27,4.6,13.3a.964.964,0,0,0-.159.218l-2.33,4.7a.834.834,0,0,0,1.1,1.148l4.7-2.33a.964.964,0,0,0,.218-.159l7.031-7.031Z" transform="translate(0 -0.69)" fill="#ff9f1c"/>
    <path id="Path_27695" data-name="Path 27695" d="M19.38,21.676H11.838a.838.838,0,1,1,0-1.676H19.38a.838.838,0,0,1,0,1.676Z" transform="translate(-1.456 -2.915)" fill="#ff9f1c"/>
  </g>
</svg>
