<svg xmlns="http://www.w3.org/2000/svg" width="22.896" height="22.883" viewBox="0 0 22.896 22.883">
  <path id="home_4_" data-name="home (4)" d="M21.576,8.464,14.5,1.385a4.673,4.673,0,0,0-6.6,0L.82,8.464A2.779,2.779,0,0,0,0,10.444V19.6a2.8,2.8,0,0,0,2.8,2.8H19.6a2.8,2.8,0,0,0,2.8-2.8V10.444A2.779,2.779,0,0,0,21.576,8.464ZM14,20.538H8.4V16.867a2.8,2.8,0,0,1,5.6,0ZM20.53,19.6a.933.933,0,0,1-.933.933H15.864V16.867a4.666,4.666,0,0,0-9.332,0v3.671H2.8a.933.933,0,0,1-.933-.933V10.444a.941.941,0,0,1,.273-.66L9.218,2.708a2.807,2.807,0,0,1,3.96,0l7.078,7.079a.941.941,0,0,1,.273.657Z" transform="translate(0.25 0.229)" fill="#ff9f1c" stroke="#ff9f1c" stroke-width="0.5"/>
</svg>
