<svg id="Group_12414" data-name="Group 12414" xmlns="http://www.w3.org/2000/svg" width="70" height="70" viewBox="0 0 70 70">
  <circle id="Ellipse_193" data-name="Ellipse 193" cx="35" cy="35" r="35" fill="#f2f9ff"/>
  <path id="Icon_ionic-ios-arrow-round-forward" data-name="Icon ionic-ios-arrow-round-forward" d="M17.212,17.656a1.225,1.225,0,0,1-.009-1.725l5.7-5.709H1.209a1.219,1.219,0,0,1,0-2.437H22.893l-5.7-5.709A1.234,1.234,0,0,1,17.2.35,1.214,1.214,0,0,1,18.918.36l7.725,7.781h0a1.369,1.369,0,0,1,.253.384,1.163,1.163,0,0,1,.094.469,1.222,1.222,0,0,1-.347.853l-7.725,7.781A1.194,1.194,0,0,1,17.212,17.656Z" transform="translate(26 48) rotate(-90)"/>
</svg>
