<svg xmlns="http://www.w3.org/2000/svg" width="68.201" height="44.994" viewBox="0 0 68.201 44.994">
  <g id="Group_14459" data-name="Group 14459" transform="translate(-1305.834 -1483.719)">
    <g id="co2_1_" data-name="co2 (1)" transform="translate(1305.965 1396.936)">
      <g id="Group_14450" data-name="Group 14450" transform="translate(16.509 102.856)">
        <g id="Group_14449" data-name="Group 14449" transform="translate(0 0)">
          <path id="Path_28837" data-name="Path 28837" d="M133.667,218.864c-.8,0-1.46.236-1.508.966-.071.989-.259,2.52-2.4,2.52-1.625,0-2.52-.871-2.52-2.709V213.07c0-1.837.9-2.709,2.473-2.709a2.182,2.182,0,0,1,2.45,2.332c.024.707.66.966,1.531.966,1.036,0,1.531-.283,1.531-1.508,0-2.732-2.332-4.475-5.606-4.475-2.968,0-5.441,1.46-5.441,5.394v6.572c0,3.933,2.45,5.394,5.417,5.394,3.3,0,5.629-1.814,5.629-4.664C135.222,219.17,134.727,218.864,133.667,218.864Z" transform="translate(-124.175 -207.676)" fill="#f4178f"/>
        </g>
      </g>
      <g id="Group_14452" data-name="Group 14452" transform="translate(30.147 102.856)">
        <g id="Group_14451" data-name="Group 14451" transform="translate(0 0)">
          <path id="Path_28838" data-name="Path 28838" d="M232.266,207.676c-3.109,0-5.512,1.46-5.512,5.394v6.572c0,3.933,2.4,5.394,5.512,5.394s5.535-1.46,5.535-5.394V213.07C237.8,209.136,235.375,207.676,232.266,207.676Zm2.473,11.965c0,1.861-.942,2.709-2.473,2.709-1.554,0-2.45-.848-2.45-2.709V213.07c0-1.861.9-2.709,2.45-2.709,1.531,0,2.473.848,2.473,2.709Z" transform="translate(-226.754 -207.676)" fill="#f4178f"/>
        </g>
      </g>
      <g id="Group_14454" data-name="Group 14454" transform="translate(43.162 110.701)">
        <g id="Group_14453" data-name="Group 14453" transform="translate(0 0)">
          <path id="Path_28839" data-name="Path 28839" d="M332.35,278.192h-5.184v-.448c0-1.939,5.911-3.245,5.911-7.273a3.9,3.9,0,0,0-4.177-3.786c-2.07,0-4.009,1.305-4.009,3.431,0,1.007.466,1.305,1.1,1.305.8,0,1.268-.448,1.268-.9a1.512,1.512,0,0,1,1.66-1.641,1.62,1.62,0,0,1,1.734,1.66c0,2.629-6,4.214-6,7.2v1.809c0,.466.634.765,1.063.765h6.639c.41,0,.765-.522.765-1.082S332.76,278.192,332.35,278.192Z" transform="translate(-324.648 -266.686)" fill="#f4178f"/>
        </g>
      </g>
      <g id="Group_14456" data-name="Group 14456" transform="translate(0 99.532)">
        <g id="Group_14455" data-name="Group 14455" transform="translate(0 0)">
          <path id="Path_28840" data-name="Path 28840" d="M64.946,192.424a13.824,13.824,0,0,0-7.149-4.585,22.367,22.367,0,0,0-1.472-4.565,1,1,0,1,0-1.834.818,20.358,20.358,0,0,1,1.453,4.749,1,1,0,0,0,.783.808A11.76,11.76,0,0,1,54.3,212.916H17.565A15.719,15.719,0,0,1,2,199.248a1,1,0,0,0-1.991.256,17.731,17.731,0,0,0,17.556,15.419H54.3a13.767,13.767,0,0,0,10.642-22.5Z" transform="translate(0 -182.679)" fill="#f4178f"/>
          <path id="Path_28842" data-name="Path 28842" d="M1.125,11.552a20.643,20.643,0,0,0-.115,5.4" fill="none" stroke="#f4178f" stroke-width="2"/>
        </g>
      </g>
      <g id="Group_14458" data-name="Group 14458" transform="translate(0.055 86.783)">
        <g id="Group_14457" data-name="Group 14457" transform="translate(0 0)">
          <path id="Path_28841" data-name="Path 28841" d="M54.175,95.851a22.7,22.7,0,0,0-7.79-6.6A22.511,22.511,0,0,0,17.7,96.375,17.706,17.706,0,0,0,.423,111.381a1,1,0,1,0,1.985.3,15.7,15.7,0,0,1,15.513-13.3c.089,0,.177,0,.266,0h.019a1,1,0,0,0,.854-.447,20.5,20.5,0,0,1,26.408-6.9,20.68,20.68,0,0,1,7.1,6.011,1,1,0,0,0,1.61-1.2Z" transform="translate(-0.412 -86.783)" fill="#f4178f"/>
        </g>
      </g>
      <path id="Path_28843" data-name="Path 28843" d="M53.016,96.458a16.862,16.862,0,0,1,2.463,4.175" fill="none" stroke="#f4178f" stroke-width="2"/>
    </g>
  </g>
</svg>
