<svg xmlns="http://www.w3.org/2000/svg" width="34.969" height="41.526" viewBox="0 0 34.969 41.526">
  <g id="pdf-file" transform="translate(-15.516 3.03)">
    <path id="Union_27" data-name="Union 27" d="M17.485,41.526H4.119A4.073,4.073,0,0,1,0,37.511V4.015A4.073,4.073,0,0,1,4.119,0H22.4a6.982,6.982,0,0,1,4.982,2.088l5.7,5.863a6.576,6.576,0,0,1,1.883,4.6V37.511a4.073,4.073,0,0,1-4.119,4.015Z" transform="translate(15.516 -3.03)" fill="#2ec4b6"/>
    <g id="Group_12563" data-name="Group 12563" transform="translate(21.374 13.055)">
      <path id="Path_27136" data-name="Path 27136" d="M84.178,209H82.02A1.02,1.02,0,0,0,81,210.023s0,.213,0,.51c0,.01,0,.02,0,.031v7.206a1.02,1.02,0,0,0,2.04,0v-2.352l1.138,0a3.207,3.207,0,1,0,0-6.414Zm0,4.374-1.129,0c0-.434,0-.9,0-1.171,0-.231,0-.713,0-1.167h1.135a1.168,1.168,0,1,1,0,2.335Z" transform="translate(-81 -209)" fill="#f5faff"/>
      <path id="Union_29" data-name="Union 29" d="M1.035,9.561A1.02,1.02,0,0,1,.015,8.545c0-.027-.01-2.738-.01-3.773C.005,3.915,0,1.022,0,1.022A1.02,1.02,0,0,1,1.02,0H3.15A3.986,3.986,0,0,1,7.119,3.669v0l0,.029v0l0,.029v0l0,.029v0l0,.028v0l0,.027v0l0,.028v0l0,.027v0l0,.026v.006l0,.025v.006l0,.026v.006l0,.025v.007l0,.025v.007l0,.024v.008l0,.024v.008l0,.023v.01l0,.022v.011l0,.02v.013l0,.019v.389c0,.005,0,.011,0,.016v.03c0,.007,0,.013,0,.02s0,.008,0,.012,0,.014,0,.022,0,.044,0,.067C7.207,7.5,5.535,9.5,3.23,9.544H3.2c-.629.01-2.093.016-2.157.016Zm1.01-4.788c0,.623,0,1.858.007,2.743.424,0,.879-.006,1.143-.011l.062,0h.019C4.582,7.426,5.167,6.092,5.167,4.78c0-.02,0-.041,0-.064V4.7h0V4.691h0C5.152,3.969,4.945,2.074,3.2,2.042H2.042C2.043,2.96,2.045,4.247,2.045,4.772Z" transform="translate(8.703 0)" fill="#f5faff"/>
      <g id="Group_12562" data-name="Group 12562" transform="translate(18.493 0)">
        <path id="Path_27139" data-name="Path 27139" d="M356.89,211.616H355.04v-1.734h2.1a1.02,1.02,0,1,0,0-2.04H354.02a1.02,1.02,0,0,0-1.02,1.02v7.694a1.02,1.02,0,0,0,2.04,0v-2.9h1.851a1.02,1.02,0,1,0,0-2.04Z" transform="translate(-353 -207.842)" fill="#f5faff"/>
      </g>
    </g>
  </g>
</svg>
