<svg xmlns="http://www.w3.org/2000/svg" width="151.775" height="24.969" viewBox="0 0 151.775 24.969">
  <g id="Group_3164" transform="translate(-98 575)">
    <path id="Path_20" d="M111.186-575h-.7A12.512,12.512,0,0,0,98-562.516a11.612,11.612,0,0,0,2.244,7.014A125.851,125.851,0,0,1,111.186-575" transform="translate(0)" fill="#b21917"/>
    <path id="Path_21" d="M105.1-557.769c5.751-2.805,12.765-4.068,15.009-4.489v-.842a12.544,12.544,0,0,0-6.172-10.8,129.354,129.354,0,0,0-8.837,16.131" transform="translate(2.859 0.443)" fill="#b21917"/>
    <path id="Path_22" d="M104.747-557.668H101.1a12.5,12.5,0,0,0,8.136,3.086A12.459,12.459,0,0,0,121.3-563.7c-11.643,2.1-16.552,6.032-16.552,6.032" transform="translate(1.248 4.551)" fill="#b21917"/>
    <path id="Path_23" d="M122-570.9v12.344h7.575v-2.1h-5.19V-570.9Z" transform="translate(9.666 1.651)" fill="#212121"/>
    <path id="Path_24" d="M133.891-564.893a1.793,1.793,0,0,0-1.683-1.543,1.806,1.806,0,0,0-1.824,1.543Zm2.1,3.928a4.78,4.78,0,0,1-3.507,1.543A4.269,4.269,0,0,1,128-563.911c0-2.385,1.543-4.489,4.068-4.489a4.138,4.138,0,0,1,4.068,4.348v.7h-5.891a2.156,2.156,0,0,0,2.244,1.964,2.983,2.983,0,0,0,2.1-.982Z" transform="translate(12.082 2.658)" fill="#212121"/>
    <path id="Path_25" d="M141.233-565.214a2.664,2.664,0,0,0-2.1-1.122,2.337,2.337,0,0,0-2.244,2.385,2.252,2.252,0,0,0,2.244,2.385,2.664,2.664,0,0,0,2.1-1.122Zm2.244,5.611h-2.244v-.7a3.809,3.809,0,0,1-2.385.842,4.566,4.566,0,0,1-3.226-1.4,4.527,4.527,0,0,1-1.122-2.946,4.289,4.289,0,0,1,4.208-4.489,4.2,4.2,0,0,1,2.525.842v-.7h2.244Z" transform="translate(14.7 2.698)" fill="#212121"/>
    <path id="Path_26" d="M142.782-562.268a3.809,3.809,0,0,0,2.385.842c.561,0,1.122-.281,1.122-.7,0-1.262-4.068-.842-4.068-3.507,0-1.683,1.543-2.665,3.226-2.665a6.082,6.082,0,0,1,2.946.842l-1.122,1.683a3.008,3.008,0,0,0-1.683-.561c-.561,0-1.122.281-1.122.7,0,1.122,4.068.7,4.068,3.647,0,1.683-1.543,2.665-3.367,2.665a5.708,5.708,0,0,1-3.367-1.122Z" transform="translate(17.64 2.698)" fill="#212121"/>
    <path id="Path_27" d="M149.665-558.355h-2.244v-8.557h2.244ZM148.543-571.4a1.442,1.442,0,0,1,1.4,1.543,1.442,1.442,0,0,1-1.543,1.4,1.406,1.406,0,0,1-1.4-1.4,1.557,1.557,0,0,1,1.543-1.543h0" transform="translate(19.734 1.45)" fill="#212121"/>
    <path id="Path_28" d="M149.8-559.6v-8.557h2.244v.7a3.809,3.809,0,0,1,2.385-.842,3.948,3.948,0,0,1,2.946,1.4,4.345,4.345,0,0,1,.842,2.946v4.348h-2.244v-4.489c0-.842-.14-1.262-.561-1.543a1.958,1.958,0,0,0-1.262-.421,2.664,2.664,0,0,0-2.1,1.122v5.611L149.8-559.6Z" transform="translate(20.861 2.698)" fill="#212121"/>
    <path id="Path_29" d="M163.233-565.214a2.664,2.664,0,0,0-2.1-1.122,2.337,2.337,0,0,0-2.244,2.385,2.252,2.252,0,0,0,2.244,2.385,2.664,2.664,0,0,0,2.1-1.122Zm2.244,5.05a5.211,5.211,0,0,1-.842,3.226,4.432,4.432,0,0,1-3.787,1.683,5.464,5.464,0,0,1-4.068-1.683l1.4-1.543a3.455,3.455,0,0,0,2.665,1.263,2.1,2.1,0,0,0,1.683-.7,3.27,3.27,0,0,0,.561-1.964v-.281a2.723,2.723,0,0,1-2.244.7,4.566,4.566,0,0,1-3.226-1.4,4.527,4.527,0,0,1-1.122-2.946,4.289,4.289,0,0,1,4.208-4.489,4.2,4.2,0,0,1,2.525.842v-.7h2.244v8Z" transform="translate(23.56 2.698)" fill="#212121"/>
    <path id="Path_30" d="M170.472-560.059a4.354,4.354,0,0,0,4.348-4.629,4.354,4.354,0,0,0-4.348-4.629,4.354,4.354,0,0,0-4.348,4.629,4.275,4.275,0,0,0,4.348,4.629m0-10.941a6.169,6.169,0,0,1,6.172,6.312,6.169,6.169,0,0,1-6.172,6.312,6.168,6.168,0,0,1-6.172-6.312A6.085,6.085,0,0,1,170.472-571" transform="translate(26.701 1.611)" fill="#212121"/>
    <path id="Path_31" d="M175.683-562.309a2.928,2.928,0,0,0,2.244,1.122,2.579,2.579,0,0,0,2.665-2.665h0a2.663,2.663,0,0,0-2.665-2.665,3,3,0,0,0-2.385,1.122v3.086Zm0,6.873H174v-12.484h1.543v.7a4.37,4.37,0,0,1,2.525-.982,3.22,3.22,0,0,1,1.964.561,4.6,4.6,0,0,1,2.1,3.787,4.6,4.6,0,0,1-2.1,3.787,5.2,5.2,0,0,1-2.1.561,4.2,4.2,0,0,1-2.525-.842v4.91Z" transform="translate(30.607 2.739)" fill="#212121"/>
    <path id="Path_32" d="M186.753-559.039a3.882,3.882,0,0,1-1.262.14,3.384,3.384,0,0,1-2.385-.982,2.9,2.9,0,0,1-.7-2.244v-3.787h-2.1v-1.543h2.1V-569.7h1.683v2.244h2.665v1.543h-2.665v3.928a1.511,1.511,0,0,0,.281,1.122,1.593,1.593,0,0,0,1.122.421,1.78,1.78,0,0,0,.842-.14Z" transform="translate(33.145 2.134)" fill="#212121"/>
    <path id="Path_33" d="M185.781-566.832h1.683v8.276h-1.683Zm.842-4.068a1.106,1.106,0,0,1,1.122,1.122h0a1.207,1.207,0,0,1-1.122,1.122h0a1.106,1.106,0,0,1-1.122-1.122h0a1.207,1.207,0,0,1,1.122-1.122h0" transform="translate(35.239 1.651)" fill="#212121"/>
    <path id="Path_34" d="M192.308-561.086a2.663,2.663,0,0,0,2.665-2.665,2.579,2.579,0,0,0-2.665-2.665,2.663,2.663,0,0,0-2.665,2.665,2.663,2.663,0,0,0,2.665,2.665m0-7.014a4.168,4.168,0,0,1,4.208,4.348,4.168,4.168,0,0,1-4.208,4.348,4.168,4.168,0,0,1-4.208-4.348,4.168,4.168,0,0,1,4.208-4.348" transform="translate(36.286 2.779)" fill="#212121"/>
    <path id="Path_35" d="M196.883-567.078a3.38,3.38,0,0,1,2.525-.982,3.948,3.948,0,0,1,2.946,1.4,4.346,4.346,0,0,1,.842,2.946v4.068h-1.683v-4.208c0-1.122-.14-1.543-.561-1.964a2,2,0,0,0-1.683-.842,3,3,0,0,0-2.385,1.122v5.611H195.2V-568.2h1.543Z" transform="translate(39.145 2.739)" fill="#212121"/>
    <path id="Path_36" d="M202.722-561.968a5.093,5.093,0,0,0,2.385.982c.7,0,1.4-.421,1.4-.982,0-.982-1.4-.982-2.525-1.4a2.379,2.379,0,0,1-1.964-2.1c0-1.824,1.543-2.525,3.086-2.525a3.7,3.7,0,0,1,2.665.982l-.842,1.122a2.955,2.955,0,0,0-1.824-.7c-.842,0-1.543.421-1.543.982s.7.7,1.543.982c1.262.281,2.946.982,2.946,2.665,0,1.543-1.4,2.525-3.086,2.525a5.708,5.708,0,0,1-3.367-1.122Z" transform="translate(41.723 2.819)" fill="#212121"/>
  </g>
</svg>
