<svg xmlns="http://www.w3.org/2000/svg" width="230" height="280" viewBox="0 0 230 280">
  <g id="Group_13181" data-name="Group 13181" transform="translate(-331 -1519)">
    <rect id="Rectangle_2761" data-name="Rectangle 2761" width="230" height="280" rx="14" transform="translate(331 1519)" fill="#fff"/>
    <text id="Anaerobic_Digestion" data-name="Anaerobic Digestion" transform="translate(446 1766)" fill="#212121" font-size="18" font-family="SegoeUI, Segoe UI" letter-spacing="0.02em"><tspan x="-83" y="0">Anaerobic Digestion</tspan></text>
    <g id="virus_1_" data-name="virus (1)" transform="translate(396 1579.762)">
      <g id="Group_13186" data-name="Group 13186">
        <g id="Group_13185" data-name="Group 13185">
          <path id="Path_27651" data-name="Path 27651" d="M50.238,0a50.238,50.238,0,1,0,50.238,50.238A50.238,50.238,0,0,0,50.238,0Zm0,97.126A46.889,46.889,0,1,1,97.126,50.238,46.889,46.889,0,0,1,50.238,97.126Z" stroke="#212121" stroke-width="0.7"/>
        </g>
      </g>
      <g id="Group_13188" data-name="Group 13188" transform="translate(77.313 18.089)">
        <g id="Group_13187" data-name="Group 13187">
          <path id="Path_27652" data-name="Path 27652" d="M371.6,86.416l-2.259,2.472a40.418,40.418,0,0,1,7.434,9.095l2.874-1.72A43.748,43.748,0,0,0,371.6,86.416Z" transform="translate(-369.344 -86.416)" stroke="#212121" stroke-width="0.7"/>
        </g>
      </g>
      <g id="Group_13190" data-name="Group 13190" transform="translate(60.642 8.187)">
        <g id="Group_13189" data-name="Group 13189">
          <path id="Path_27653" data-name="Path 27653" d="M290.573,39.112l-.869,3.234a39.968,39.968,0,0,1,13.04,6.191l1.958-2.708A43.207,43.207,0,0,0,290.573,39.112Z" transform="translate(-289.704 -39.112)" stroke="#212121" stroke-width="0.7"/>
        </g>
      </g>
      <g id="Group_13192" data-name="Group 13192" transform="translate(62.538 15.967)">
        <g id="Group_13191" data-name="Group 13191">
          <path id="Path_27654" data-name="Path 27654" d="M299.994,76.28,298.76,79.4a33.674,33.674,0,0,1,14.1,10.55l2.638-2.063A37,37,0,0,0,299.994,76.28Z" transform="translate(-298.76 -76.28)" stroke="#212121" stroke-width="0.7"/>
        </g>
      </g>
      <g id="Group_13194" data-name="Group 13194" transform="translate(61.268 22.774)">
        <g id="Group_13193" data-name="Group 13193">
          <path id="Path_27655" data-name="Path 27655" d="M294.079,108.8l-1.383,3.049a26.82,26.82,0,0,1,11.993,10.721l2.875-1.713A30.142,30.142,0,0,0,294.079,108.8Z" transform="translate(-292.696 -108.8)" stroke="#212121" stroke-width="0.7"/>
        </g>
      </g>
      <g id="Group_13196" data-name="Group 13196" transform="translate(25.119 35.166)">
        <g id="Group_13195" data-name="Group 13195">
          <path id="Path_27656" data-name="Path 27656" d="M136.746,168a16.746,16.746,0,1,0,16.746,16.746A16.764,16.764,0,0,0,136.746,168Zm0,30.143a13.4,13.4,0,1,1,13.4-13.4A13.4,13.4,0,0,1,136.746,198.143Z" transform="translate(-120 -168)" stroke="#212121" stroke-width="0.7"/>
        </g>
      </g>
      <g id="Group_13198" data-name="Group 13198" transform="translate(35.166 45.214)">
        <g id="Group_13197" data-name="Group 13197">
          <path id="Path_27657" data-name="Path 27657" d="M176.373,216a8.373,8.373,0,1,0,8.373,8.373A8.383,8.383,0,0,0,176.373,216Zm0,13.4a5.024,5.024,0,1,1,5.024-5.024A5.024,5.024,0,0,1,176.373,229.4Z" transform="translate(-168 -216)" stroke="#212121" stroke-width="0.7"/>
        </g>
      </g>
      <g id="Group_13200" data-name="Group 13200" transform="translate(17.28 23.34)">
        <g id="Group_13199" data-name="Group 13199">
          <path id="Path_27658" data-name="Path 27658" d="M87.628,111.5A5.076,5.076,0,1,0,92.7,116.58,5.076,5.076,0,0,0,87.628,111.5Zm0,6.8a1.727,1.727,0,1,1,1.727-1.727A1.727,1.727,0,0,1,87.628,118.306Z" transform="translate(-82.552 -111.504)" stroke="#212121" stroke-width="0.7"/>
        </g>
      </g>
      <g id="Group_13202" data-name="Group 13202" transform="translate(9.931 48.485)">
        <g id="Group_13201" data-name="Group 13201" transform="translate(0 0)">
          <ellipse id="Ellipse_258" data-name="Ellipse 258" cx="2.5" cy="3" rx="2.5" ry="3" transform="translate(0.307 -0.248)" stroke="#212121" stroke-width="0.7"/>
        </g>
      </g>
      <g id="Group_13204" data-name="Group 13204" transform="translate(51.912 81.951)">
        <g id="Group_13203" data-name="Group 13203">
          <path id="Path_27659" data-name="Path 27659" d="M253.079,391.5h0a5.077,5.077,0,1,0,5.079,5.079A5.082,5.082,0,0,0,253.076,391.5Zm0,6.806a1.728,1.728,0,1,1,0-3.456h0a1.728,1.728,0,0,1,0,3.456Z" transform="translate(-248 -391.504)" stroke="#212121" stroke-width="0.7"/>
        </g>
      </g>
      <g id="Group_13206" data-name="Group 13206" transform="translate(80.277 40.19)">
        <g id="Group_13205" data-name="Group 13205">
          <path id="Path_27660" data-name="Path 27660" d="M388.58,192a5.076,5.076,0,1,0,5.076,5.076A5.081,5.081,0,0,0,388.58,192Zm0,6.8a1.727,1.727,0,1,1,1.727-1.727A1.727,1.727,0,0,1,388.58,198.8Z" transform="translate(-383.504 -192)" stroke="#212121" stroke-width="0.7"/>
        </g>
      </g>
      <g id="Group_13208" data-name="Group 13208" transform="translate(18.42 68.658)">
        <g id="Group_13207" data-name="Group 13207">
          <path id="Path_27661" data-name="Path 27661" d="M106.013,331.347h-4.33a3.042,3.042,0,0,1-2.165-.9l-.573-.573A6.41,6.41,0,0,0,88,334.41v1.675a6.363,6.363,0,0,0,1.879,4.533,13.994,13.994,0,0,0,9.962,4.126h6.173a6.7,6.7,0,1,0,0-13.4Zm2.37,9.066a3.327,3.327,0,0,1-2.37.981H99.841a10.67,10.67,0,0,1-7.594-3.145,3.042,3.042,0,0,1-.9-2.165V334.41a3.063,3.063,0,0,1,5.228-2.165l.573.573a6.363,6.363,0,0,0,4.533,1.879h4.33a3.349,3.349,0,0,1,2.37,5.717Z" transform="translate(-88 -327.997)" stroke="#212121" stroke-width="0.7"/>
        </g>
      </g>
      <g id="Group_13210" data-name="Group 13210" transform="translate(28.468 8.373)">
        <g id="Group_13209" data-name="Group 13209">
          <path id="Path_27662" data-name="Path 27662" d="M158.213,43.243a5.23,5.23,0,0,0-.65-.793A8.313,8.313,0,0,0,151.648,40h-1.415a11.705,11.705,0,0,0-8.331,3.451l-4.372,4.372a5.226,5.226,0,0,0,3.7,8.922H142.9a5.191,5.191,0,0,0,3.7-1.531l2.944-2.944a1.87,1.87,0,0,1,1.328-.549h2.477a5.219,5.219,0,0,0,2.9-.876l.526-.35A5.23,5.23,0,0,0,158.213,43.243Zm-3.019,4.232a1.884,1.884,0,0,1-.284.233l-.526.35a1.871,1.871,0,0,1-1.04.315h-2.477a5.191,5.191,0,0,0-3.7,1.531l-2.944,2.944a1.87,1.87,0,0,1-1.328.549h-1.675a1.877,1.877,0,0,1-1.328-3.205l4.372-4.372a8.382,8.382,0,0,1,5.963-2.47h1.415a4.989,4.989,0,0,1,3.547,1.469A1.879,1.879,0,0,1,155.194,47.475Z" transform="translate(-135.998 -40)" stroke="#212121" stroke-width="0.7"/>
        </g>
      </g>
      <g id="Group_13212" data-name="Group 13212" transform="translate(64.115 55.26)">
        <g id="Group_13211" data-name="Group 13211">
          <path id="Path_27663" data-name="Path 27663" d="M328.5,267.73a6.775,6.775,0,0,0-9.085-3.021,7.4,7.4,0,0,0-3.736,4.307l-.223.67a5.789,5.789,0,0,1-1.874,2.679l-4.955,3.964a6.2,6.2,0,0,0,3.873,11.039h2.261a6.213,6.213,0,0,0,3.872-1.36l1.881-1.507a27.24,27.24,0,0,0,8.262-11.136A6.841,6.841,0,0,0,328.5,267.73Zm-2.833,4.4a23.9,23.9,0,0,1-7.244,9.766l-1.881,1.507a2.855,2.855,0,0,1-1.78.625H312.5a2.847,2.847,0,0,1-1.782-5.076l4.955-3.964a9.111,9.111,0,0,0,2.961-4.245l.221-.67a4.126,4.126,0,0,1,2.056-2.37,3.5,3.5,0,0,1,4.754,4.426Z" transform="translate(-306.294 -263.99)" stroke="#212121" stroke-width="0.7"/>
        </g>
      </g>
    </g>
  </g>
</svg>
