<svg xmlns="http://www.w3.org/2000/svg" width="230" height="280" viewBox="0 0 230 280">
  <g id="Group_13183" data-name="Group 13183" transform="translate(-353 -1519)">
    <rect id="Rectangle_2761" data-name="Rectangle 2761" width="230" height="280" rx="14" transform="translate(353 1519)" fill="#fff"/>
    <text id="Hydropower" transform="translate(468 1766)" fill="#212121" font-size="18" font-family="SegoeUI, Segoe UI" letter-spacing="0.02em"><tspan x="-50" y="0">Hydropower</tspan></text>
    <g id="_18_SSave_environment" data-name="18 SSave environment" transform="translate(419.001 1578.526)">
      <path id="Path_27642" data-name="Path 27642" d="M37.564,101.947A32.217,32.217,0,0,1,5,69.384C5,51.6,34.912,3.789,36.185,1.762A1.628,1.628,0,0,1,37.564,1h0a1.628,1.628,0,0,1,1.379.762c.116.182,11.578,18.483,20.483,36.535a1.629,1.629,0,1,1-2.921,1.441C49.491,25.52,40.871,11.135,37.564,5.722,31.589,15.5,8.257,54.616,8.257,69.384A29,29,0,0,0,37.564,98.691,29.514,29.514,0,0,0,56.5,91.89a1.628,1.628,0,1,1,2.089,2.5,32.777,32.777,0,0,1-21.022,7.56Z" transform="translate(0 0)" stroke="#212121" stroke-width="0.6"/>
      <path id="Path_27643" data-name="Path 27643" d="M18.324,61.538a1.628,1.628,0,0,1-1.14-.471A24.3,24.3,0,0,1,10,43.628a1.628,1.628,0,1,1,3.256,0,21.067,21.067,0,0,0,6.212,15.124,1.628,1.628,0,0,1-1.14,2.786Z" transform="translate(3.141 25.756)" stroke="#212121" stroke-width="0.6"/>
      <path id="Path_27644" data-name="Path 27644" d="M42.142,72.591a1.628,1.628,0,0,1-1.628-1.628V53.053H35.629a1.628,1.628,0,0,1-1.413-2.442L47.242,27.816a1.628,1.628,0,0,1,3.041.814V46.54h4.885a1.628,1.628,0,0,1,1.413,2.442L43.555,71.777A1.628,1.628,0,0,1,42.142,72.591ZM38.435,49.8h3.707a1.628,1.628,0,0,1,1.628,1.628V64.831L52.362,49.8H48.655a1.628,1.628,0,0,1-1.628-1.628V34.762Z" transform="translate(18.217 16.331)" stroke="#212121" stroke-width="0.6"/>
      <path id="Path_27645" data-name="Path 27645" d="M52.307,81.615A29.307,29.307,0,1,1,81.615,52.307,29.307,29.307,0,0,1,52.307,81.615Zm0-55.358A26.051,26.051,0,1,0,78.358,52.307,26.051,26.051,0,0,0,52.307,26.256Z" transform="translate(11.308 13.82)" stroke="#212121" stroke-width="0.6"/>
    </g>
  </g>
</svg>
