<svg xmlns="http://www.w3.org/2000/svg" width="230" height="280" viewBox="0 0 230 280">
  <g id="Group_13182" data-name="Group 13182" transform="translate(-331 -1519)">
    <rect id="Rectangle_2761" data-name="Rectangle 2761" width="230" height="280" rx="14" transform="translate(331 1519)" fill="#fff"/>
    <text id="Micro_CHP" data-name="Micro CHP" transform="translate(446 1766)" fill="#212121" font-size="18" font-family="SegoeUI, Segoe UI" letter-spacing="0.02em"><tspan x="-43" y="0">Micro CHP</tspan></text>
    <g id="XMLID_1181_" transform="translate(387.018 1579.76)">
      <path id="XMLID_1207_" d="M290.557,205.086a1.586,1.586,0,0,0-2.07-1.452l-6.169,1.982c.72-5.858,1.487-20.136-6.507-28.482a1.585,1.585,0,0,0-2.031-.218,89.494,89.494,0,0,0-12.343,10.474c-8.511,8.629-13.471,17.156-14.741,25.345-1.37,8.835,1.174,16.349,7.164,21.157a21.556,21.556,0,0,0,13.531,4.647,23.513,23.513,0,0,0,8.536-1.617C281.745,234.655,291.381,227.5,290.557,205.086Zm-21.015,15.292a1.585,1.585,0,0,0,1.784.2l6.659-3.54c-.243,11.274-5.083,14.913-8.088,16.085a12.394,12.394,0,0,1-12.089-1.618c-3.223-2.587-4.578-6.718-3.816-11.631,1.52-9.8,12.126-18.515,15.722-21.218,3.43,5.371.794,16.058-.623,19.982A1.586,1.586,0,0,0,269.542,220.378Zm5.233,13.59c-.078.03-.156.058-.235.087,3.483-2.794,7.005-8.412,6.591-19.7a1.586,1.586,0,0,0-2.329-1.342L273.188,216c1.387-5.418,2.995-15.369-2.027-20.613a1.586,1.586,0,0,0-2.031-.218c-.662.446-16.233,11.073-18.272,24.222a19.342,19.342,0,0,0-.164,4.855,21.979,21.979,0,0,1-.863-11.025c2.432-15.683,19.94-29.458,24.592-32.869,7.728,9.559,4.424,27.07,4.389,27.252a1.586,1.586,0,0,0,2.041,1.815l6.582-2.115C287.559,226.1,279.632,232.074,274.776,233.968Z" transform="translate(-183.943 -138.06)" fill="#212121" stroke="#212121" stroke-width="1"/>
      <path id="XMLID_1341_" d="M79.111,28.59a1.585,1.585,0,0,0-1.427-.894H50.33L68.4,2.51A1.586,1.586,0,0,0,67.114,0H41.743a1.585,1.585,0,0,0-1.283.654L11.285,40.823a1.586,1.586,0,0,0,1.283,2.517H41.782L29.643,87.85a1.585,1.585,0,0,0,2.775,1.4L78.93,30.263A1.584,1.584,0,0,0,79.111,28.59ZM34.753,81.166,45.388,42.172a1.586,1.586,0,0,0-1.53-2H15.679l26.872-37H64.024L45.952,28.357a1.586,1.586,0,0,0,1.288,2.51H74.415Z" transform="translate(0)" fill="#212121" stroke="#212121" stroke-width="1"/>
    </g>
  </g>
</svg>
