<svg xmlns="http://www.w3.org/2000/svg" width="230" height="280" viewBox="0 0 230 280">
  <g id="Group_13178" data-name="Group 13178" transform="translate(-331 -1519)">
    <rect id="Rectangle_2761" data-name="Rectangle 2761" width="230" height="280" rx="14" transform="translate(331 1519)" fill="#fff"/>
    <g id="solar-panels" transform="translate(395.998 1579.392)">
      <g id="Page-1_16_" transform="translate(0.002 0)">
        <g id="_x30_17---Solar-Field">
          <path id="Shape_64_" d="M64.566,77.928A13.364,13.364,0,1,0,51.2,64.564,13.364,13.364,0,0,0,64.566,77.928Zm0-23.387A10.023,10.023,0,1,1,54.543,64.564,10.023,10.023,0,0,1,64.566,54.541Z" transform="translate(-41.179 -41.177)"/>
          <path id="Path_76_" d="M110.935,1.67V5.012a1.67,1.67,0,0,0,3.341,0V1.67a1.67,1.67,0,0,0-3.341,0Z" transform="translate(-89.218 0)"/>
          <path id="Path_75_" d="M110.935,206.47v3.341a1.67,1.67,0,1,0,3.341,0V206.47a1.67,1.67,0,1,0-3.341,0Z" transform="translate(-89.218 -164.707)"/>
          <path id="Path_74_" d="M211.484,112.6a1.67,1.67,0,0,0-1.67-1.67h-3.341a1.67,1.67,0,0,0,0,3.341h3.341A1.67,1.67,0,0,0,211.484,112.6Z" transform="translate(-164.709 -89.217)"/>
          <path id="Path_73_" d="M1.672,114.275H5.014a1.67,1.67,0,1,0,0-3.341H1.672a1.67,1.67,0,1,0,0,3.341Z" transform="translate(-0.002 -89.217)"/>
          <path id="Path_72_" d="M18.549,158.068l-2.895,1.67a1.67,1.67,0,1,0,1.67,2.893l2.895-1.67a1.67,1.67,0,1,0-1.67-2.893Z" transform="translate(-11.91 -126.939)"/>
          <path id="Path_71_" d="M193.9,60.457a1.658,1.658,0,0,0,.835-.224l2.895-1.67a1.67,1.67,0,1,0-1.67-2.893l-2.895,1.67a1.67,1.67,0,0,0,.835,3.117Z" transform="translate(-154.601 -44.587)"/>
          <path id="Path_70_" d="M57.34,20.224a1.67,1.67,0,0,0,2.893-1.671l-1.67-2.893a1.67,1.67,0,1,0-2.893,1.67Z" transform="translate(-44.587 -11.915)"/>
          <path id="Path_69_" d="M158.7,192.445a1.67,1.67,0,0,0-.611,2.282l1.67,2.893a1.67,1.67,0,1,0,2.893-1.67l-1.67-2.893A1.67,1.67,0,0,0,158.7,192.445Z" transform="translate(-126.963 -154.591)"/>
          <path id="Path_68_" d="M193.1,161.006l2.895,1.67a1.67,1.67,0,1,0,1.67-2.893l-2.895-1.67a1.67,1.67,0,0,0-1.67,2.893Z" transform="translate(-154.631 -126.984)"/>
          <path id="Path_67_" d="M15.654,58.561l2.895,1.67a1.67,1.67,0,1,0,1.67-2.893l-2.895-1.671a1.671,1.671,0,1,0-1.67,2.893Z" transform="translate(-11.91 -44.585)"/>
          <path id="Path_66_" d="M159.74,15.661l-1.67,2.893a1.67,1.67,0,1,0,2.893,1.67l1.67-2.893a1.67,1.67,0,1,0-2.893-1.67Z" transform="translate(-126.941 -11.916)"/>
          <path id="Path_65_" d="M57.34,193.1l-1.67,2.893a1.67,1.67,0,1,0,2.893,1.67l1.67-2.893a1.67,1.67,0,0,0-2.893-1.67Z" transform="translate(-44.587 -154.63)"/>
          <path id="Shape_63_" d="M96.892,278.23H93.551v-1.67a6.682,6.682,0,0,0-5.012-6.445V252.96l10.488-8.665a3.318,3.318,0,0,0,.446-4.678l-2.1-2.543a3.316,3.316,0,0,0-4.677-.444l-28.02,23.155a3.318,3.318,0,0,0-.446,4.677L66.322,267a3.324,3.324,0,0,0,4.677.444l7.517-6.206v8.876a6.682,6.682,0,0,0-5.012,6.445v1.67H65.166v-1.67a6.682,6.682,0,0,0-5.012-6.445V252.96l10.488-8.665a3.318,3.318,0,0,0,.446-4.678l-2.093-2.538a3.316,3.316,0,0,0-4.677-.444l-28.028,23.15a3.318,3.318,0,0,0-.446,4.677l2.1,2.543a3.324,3.324,0,0,0,4.677.444l7.517-6.208v8.876a6.682,6.682,0,0,0-5.012,6.445v1.67H36.773v-1.674a6.682,6.682,0,0,0-5.012-6.445V252.96l10.487-8.665a3.318,3.318,0,0,0,.446-4.678l-2.1-2.538a3.316,3.316,0,0,0-4.677-.444L7.89,259.785a3.318,3.318,0,0,0-.446,4.677l2.1,2.543a3.324,3.324,0,0,0,4.677.444l7.517-6.208v8.876a6.682,6.682,0,0,0-5.012,6.445v1.67H3.343A3.341,3.341,0,0,0,0,281.574v5.012a3.341,3.341,0,0,0,3.341,3.341H96.893a3.341,3.341,0,0,0,3.341-3.341v-5.015a3.341,3.341,0,0,0-3.341-3.341Zm-28-13.364L66.8,262.36,94.8,239.206l2.1,2.506ZM85.2,255.719v14.158H81.858v-11.4Zm-8.353,20.84a3.341,3.341,0,0,1,3.341-3.341h6.682a3.341,3.341,0,0,1,3.341,3.341v1.67H76.846ZM40.505,264.865l-2.082-2.506,27.995-23.153,2.1,2.506Zm16.308-9.138v14.149H53.472v-11.4Zm-8.352,20.831a3.341,3.341,0,0,1,3.341-3.341h6.682a3.341,3.341,0,0,1,3.341,3.341v1.67H48.461ZM12.106,264.865l-2.082-2.506L38.02,239.206l2.1,2.506Zm16.308-9.138v14.149H25.073v-11.4Zm-8.353,20.831a3.341,3.341,0,0,1,3.341-3.341h6.682a3.341,3.341,0,0,1,3.341,3.341v1.67H20.062Zm76.831,10.023H3.343v-5.012H96.893v5.012Z" transform="translate(-0.002 -189.692)"/>
        </g>
      </g>
    </g>
    <text id="Solar_PV" data-name="Solar PV" transform="translate(446 1766)" fill="#212121" font-size="18" font-family="SegoeUI, Segoe UI" letter-spacing="0.02em"><tspan x="-34" y="0">Solar PV</tspan></text>
  </g>
</svg>
