<svg xmlns="http://www.w3.org/2000/svg" width="230" height="280" viewBox="0 0 230 280">
  <g id="Group_13184" data-name="Group 13184" transform="translate(-605 -1519)">
    <rect id="Rectangle_2761" data-name="Rectangle 2761" width="230" height="280" rx="14" transform="translate(605 1519)" fill="#fff"/>
    <text id="Wind_Power" data-name="Wind Power" transform="translate(720 1766)" fill="#212121" font-size="18" font-family="SegoeUI, Segoe UI" letter-spacing="0.02em"><tspan x="-49" y="0">Wind Power</tspan></text>
    <g id="wind-turbine" transform="translate(650.998 1579.893)">
      <path id="Path_27646" data-name="Path 27646" d="M129.957,52.837,112.88,38.779a1.573,1.573,0,0,0-1.022-.357l-3.738.063a7.811,7.811,0,0,0-1.241-2.463V1.566A1.566,1.566,0,0,0,104.934.047a11.409,11.409,0,0,0-8.49,9.2L92.808,31.061a1.565,1.565,0,0,0,.2,1.063l1.926,3.21a7.853,7.853,0,0,0-1.519,2.3L63.581,54.864a1.567,1.567,0,0,0-.343,2.445,11.409,11.409,0,0,0,12.209,2.754l18.209-6.822-3.87,43.847H81.825a1.566,1.566,0,1,0,0,3.132h37.582a1.566,1.566,0,1,0,0-3.132h-7.962L107.458,51.9l23.93,13.816a1.566,1.566,0,0,0,2.288-.925A11.41,11.41,0,0,0,129.957,52.837Zm-29.341-7.425a4.7,4.7,0,1,1,4.7-4.7A4.7,4.7,0,0,1,100.616,45.412ZM99.534,9.758a8.279,8.279,0,0,1,4.215-5.916v29.7a7.808,7.808,0,0,0-6.242-.01l-1.514-2.523ZM74.349,57.13a8.281,8.281,0,0,1-7.23-.692L92.837,41.59A7.831,7.831,0,0,0,95.951,47l-1.429,2.574ZM108.3,97.088H92.931L96.94,51.663c.058-.093.328-.584,1.855-3.335a7.731,7.731,0,0,0,2.755.158l2.594,1.5Zm-3.04-50.075a7.831,7.831,0,0,0,3.131-5.4l2.942-.049,16.632,13.692a8.281,8.281,0,0,1,3.016,6.608Z" transform="translate(-31.202)" fill="#212121" stroke="#212121" stroke-width="0.5"/>
      <path id="Path_27647" data-name="Path 27647" d="M45.925,37.484A5.487,5.487,0,0,0,40.444,32H38.1a1.566,1.566,0,0,0,0,3.132h2.349a2.349,2.349,0,0,1,0,4.7H25.568a1.566,1.566,0,1,0,0,3.132H40.444A5.487,5.487,0,0,0,45.925,37.484Z" transform="translate(0 -25.739)" fill="#212121" stroke="#212121" stroke-width="0.5"/>
      <path id="Path_27648" data-name="Path 27648" d="M64,105.569a1.566,1.566,0,0,0,1.566,1.566H80.444a2.349,2.349,0,0,1,0,4.7H78.1a1.566,1.566,0,0,0,0,3.132h2.349a5.481,5.481,0,1,0,0-10.962H65.568A1.566,1.566,0,0,0,64,105.569Z" transform="translate(-32.17 -83.646)" fill="#212121" stroke="#212121" stroke-width="0.5"/>
      <path id="Path_27649" data-name="Path 27649" d="M329.568,82.965h14.876a5.481,5.481,0,0,0,0-10.962H342.1a1.566,1.566,0,1,0,0,3.132h2.349a2.349,2.349,0,0,1,0,4.7H329.568a1.566,1.566,0,1,0,0,3.132Z" transform="translate(-244.494 -57.91)" fill="#212121" stroke="#212121" stroke-width="0.5"/>
      <path id="Path_27650" data-name="Path 27650" d="M392.444,144H390.1a1.566,1.566,0,0,0,0,3.132h2.349a2.349,2.349,0,1,1,0,4.7H377.568a1.566,1.566,0,0,0,0,3.132h14.876a5.481,5.481,0,1,0,0-10.962Z" transform="translate(-283.099 -115.816)" fill="#212121" stroke="#212121" stroke-width="0.5"/>
    </g>
  </g>
</svg>
